<svg width="154" height="25" viewBox="0 0 154 25" fill="none" xmlns="http://www.w3.org/2000/svg">
<path d="M0.887784 3.98757V0.818181H15.8203V3.98757H10.2539V19H6.45419V3.98757H0.887784ZM20.2415 19.2575C19.3714 19.2575 18.5961 19.1065 17.9155 18.8047C17.2348 18.4969 16.6963 18.0442 16.2997 17.4464C15.9091 16.8427 15.7138 16.091 15.7138 15.1914C15.7138 14.4338 15.8529 13.7976 16.131 13.2827C16.4092 12.7678 16.788 12.3535 17.2674 12.0398C17.7468 11.7261 18.2913 11.4893 18.9009 11.3295C19.5165 11.1697 20.1616 11.0573 20.8363 10.9922C21.6294 10.9093 22.2686 10.8324 22.7539 10.7614C23.2392 10.6844 23.5914 10.572 23.8104 10.424C24.0294 10.276 24.1388 10.0571 24.1388 9.76705V9.71378C24.1388 9.15152 23.9613 8.7165 23.6062 8.40874C23.257 8.10097 22.7598 7.94709 22.1147 7.94709C21.4341 7.94709 20.8925 8.09801 20.4901 8.39986C20.0876 8.69579 19.8213 9.06866 19.6911 9.51847L16.1932 9.23438C16.3707 8.40578 16.7199 7.68963 17.2408 7.08594C17.7616 6.47633 18.4334 6.00876 19.256 5.68324C20.0846 5.3518 21.0434 5.18608 22.1325 5.18608C22.89 5.18608 23.6151 5.27486 24.3075 5.45241C25.0059 5.62997 25.6244 5.90518 26.163 6.27805C26.7075 6.65092 27.1366 7.13033 27.4503 7.71626C27.764 8.29628 27.9208 8.99171 27.9208 9.80256V19H24.3342V17.109H24.2276C24.0086 17.5352 23.7157 17.911 23.3487 18.2365C22.9818 18.5561 22.5408 18.8076 22.0259 18.9911C21.511 19.1687 20.9162 19.2575 20.2415 19.2575ZM21.3246 16.6474C21.8809 16.6474 22.3722 16.5379 22.7983 16.3189C23.2244 16.094 23.5588 15.7921 23.8015 15.4134C24.0442 15.0346 24.1655 14.6055 24.1655 14.1261V12.679C24.0471 12.7559 23.8844 12.8269 23.6772 12.892C23.476 12.9512 23.2481 13.0075 22.9936 13.0607C22.7391 13.1081 22.4846 13.1525 22.2301 13.1939C21.9756 13.2294 21.7448 13.262 21.5376 13.2915C21.0938 13.3567 20.7061 13.4602 20.3746 13.6023C20.0432 13.7443 19.7857 13.9367 19.6023 14.1793C19.4188 14.4161 19.3271 14.712 19.3271 15.0671C19.3271 15.582 19.5135 15.9756 19.8864 16.2479C20.2652 16.5142 20.7446 16.6474 21.3246 16.6474ZM30.8549 19V5.36364H34.4593V7.76953H34.6191C34.9032 6.97053 35.3767 6.3402 36.0396 5.87855C36.7025 5.4169 37.4956 5.18608 38.4189 5.18608C39.354 5.18608 40.15 5.41986 40.807 5.88743C41.464 6.34908 41.9019 6.97644 42.1209 7.76953H42.263C42.5411 6.98828 43.0442 6.36387 43.7722 5.89631C44.5061 5.42282 45.3732 5.18608 46.3734 5.18608C47.6459 5.18608 48.6787 5.5915 49.4718 6.40234C50.2708 7.20727 50.6703 8.34955 50.6703 9.82919V19H46.8972V10.5749C46.8972 9.81735 46.696 9.24917 46.2935 8.87038C45.891 8.4916 45.388 8.3022 44.7843 8.3022C44.0977 8.3022 43.5621 8.52119 43.1774 8.95916C42.7927 9.39122 42.6003 9.96236 42.6003 10.6726V19H38.9338V10.495C38.9338 9.82623 38.7414 9.29356 38.3567 8.89702C37.9779 8.50047 37.4778 8.3022 36.8564 8.3022C36.4361 8.3022 36.0574 8.40874 35.72 8.6218C35.3886 8.82895 35.1252 9.12192 34.9299 9.50071C34.7346 9.87358 34.6369 10.3116 34.6369 10.8146V19H30.8549ZM53.6577 19V5.36364H57.2621V7.76953H57.4219C57.706 6.97053 58.1795 6.3402 58.8423 5.87855C59.5052 5.4169 60.2983 5.18608 61.2216 5.18608C62.1567 5.18608 62.9528 5.41986 63.6097 5.88743C64.2667 6.34908 64.7047 6.97644 64.9237 7.76953H65.0657C65.3439 6.98828 65.8469 6.36387 66.5749 5.89631C67.3088 5.42282 68.1759 5.18608 69.1761 5.18608C70.4486 5.18608 71.4814 5.5915 72.2745 6.40234C73.0735 7.20727 73.473 8.34955 73.473 9.82919V19H69.6999V10.5749C69.6999 9.81735 69.4987 9.24917 69.0962 8.87038C68.6938 8.4916 68.1907 8.3022 67.587 8.3022C66.9004 8.3022 66.3648 8.52119 65.9801 8.95916C65.5954 9.39122 65.4031 9.96236 65.4031 10.6726V19H61.7365V10.495C61.7365 9.82623 61.5442 9.29356 61.1594 8.89702C60.7807 8.50047 60.2805 8.3022 59.6591 8.3022C59.2389 8.3022 58.8601 8.40874 58.5227 8.6218C58.1913 8.82895 57.9279 9.12192 57.7326 9.50071C57.5373 9.87358 57.4396 10.3116 57.4396 10.8146V19H53.6577ZM78.307 24.1136C77.8276 24.1136 77.3778 24.0752 76.9576 23.9982C76.5433 23.9272 76.2 23.8355 75.9277 23.723L76.78 20.8999C77.2239 21.036 77.6234 21.11 77.9785 21.1218C78.3395 21.1336 78.6503 21.0508 78.9107 20.8732C79.177 20.6957 79.3931 20.3938 79.5588 19.9677L79.7807 19.3906L74.889 5.36364H78.8663L81.6895 15.3778H81.8315L84.6813 5.36364H88.6852L83.3851 20.4737C83.1306 21.2076 82.7844 21.8468 82.3464 22.3913C81.9144 22.9418 81.3669 23.3649 80.704 23.6609C80.0411 23.9627 79.2421 24.1136 78.307 24.1136Z" fill="white"/>
<path d="M96.4777 19V0.818181H108.516V3.98757H100.322V8.31996H107.717V11.4893H100.322V19H96.4777ZM116.191 19.2663C114.812 19.2663 113.619 18.9734 112.613 18.3874C111.613 17.7956 110.841 16.9729 110.296 15.9194C109.752 14.86 109.479 13.6319 109.479 12.2351C109.479 10.8265 109.752 9.59541 110.296 8.5419C110.841 7.48248 111.613 6.6598 112.613 6.07386C113.619 5.48201 114.812 5.18608 116.191 5.18608C117.57 5.18608 118.76 5.48201 119.76 6.07386C120.766 6.6598 121.541 7.48248 122.086 8.5419C122.63 9.59541 122.903 10.8265 122.903 12.2351C122.903 13.6319 122.63 14.86 122.086 15.9194C121.541 16.9729 120.766 17.7956 119.76 18.3874C118.76 18.9734 117.57 19.2663 116.191 19.2663ZM116.209 16.3366C116.836 16.3366 117.36 16.1591 117.78 15.804C118.2 15.4429 118.517 14.9517 118.73 14.3303C118.949 13.7088 119.059 13.0015 119.059 12.2085C119.059 11.4154 118.949 10.7081 118.73 10.0866C118.517 9.4652 118.2 8.97396 117.78 8.61293C117.36 8.25189 116.836 8.07138 116.209 8.07138C115.575 8.07138 115.043 8.25189 114.611 8.61293C114.185 8.97396 113.862 9.4652 113.643 10.0866C113.43 10.7081 113.323 11.4154 113.323 12.2085C113.323 13.0015 113.43 13.7088 113.643 14.3303C113.862 14.9517 114.185 15.4429 114.611 15.804C115.043 16.1591 115.575 16.3366 116.209 16.3366ZM131.523 19.2663C130.144 19.2663 128.951 18.9734 127.945 18.3874C126.945 17.7956 126.173 16.9729 125.628 15.9194C125.084 14.86 124.811 13.6319 124.811 12.2351C124.811 10.8265 125.084 9.59541 125.628 8.5419C126.173 7.48248 126.945 6.6598 127.945 6.07386C128.951 5.48201 130.144 5.18608 131.523 5.18608C132.902 5.18608 134.092 5.48201 135.092 6.07386C136.098 6.6598 136.873 7.48248 137.418 8.5419C137.962 9.59541 138.235 10.8265 138.235 12.2351C138.235 13.6319 137.962 14.86 137.418 15.9194C136.873 16.9729 136.098 17.7956 135.092 18.3874C134.092 18.9734 132.902 19.2663 131.523 19.2663ZM131.541 16.3366C132.168 16.3366 132.692 16.1591 133.112 15.804C133.532 15.4429 133.849 14.9517 134.062 14.3303C134.281 13.7088 134.391 13.0015 134.391 12.2085C134.391 11.4154 134.281 10.7081 134.062 10.0866C133.849 9.4652 133.532 8.97396 133.112 8.61293C132.692 8.25189 132.168 8.07138 131.541 8.07138C130.907 8.07138 130.375 8.25189 129.943 8.61293C129.517 8.97396 129.194 9.4652 128.975 10.0866C128.762 10.7081 128.655 11.4154 128.655 12.2085C128.655 13.0015 128.762 13.7088 128.975 14.3303C129.194 14.9517 129.517 15.4429 129.943 15.804C130.375 16.1591 130.907 16.3366 131.541 16.3366ZM145.719 19.2219C144.683 19.2219 143.745 18.9556 142.904 18.4229C142.07 17.8844 141.407 17.0942 140.916 16.0526C140.43 15.005 140.188 13.7206 140.188 12.1996C140.188 10.6371 140.439 9.33795 140.942 8.3022C141.445 7.26053 142.114 6.48224 142.949 5.96733C143.789 5.4465 144.71 5.18608 145.71 5.18608C146.473 5.18608 147.11 5.31629 147.619 5.5767C148.133 5.8312 148.548 6.1508 148.861 6.53551C149.181 6.9143 149.424 7.28717 149.589 7.65412H149.705V0.818181H153.478V19H149.749V16.8161H149.589C149.412 17.1948 149.16 17.5707 148.835 17.9435C148.515 18.3105 148.098 18.6153 147.583 18.858C147.074 19.1006 146.453 19.2219 145.719 19.2219ZM146.917 16.2124C147.527 16.2124 148.042 16.0466 148.462 15.7152C148.888 15.3778 149.214 14.9073 149.438 14.3036C149.669 13.6999 149.785 12.9927 149.785 12.1818C149.785 11.371 149.672 10.6667 149.447 10.0689C149.222 9.47112 148.897 9.00947 148.471 8.68395C148.045 8.35843 147.527 8.19567 146.917 8.19567C146.296 8.19567 145.772 8.36435 145.346 8.7017C144.92 9.03906 144.597 9.50663 144.378 10.1044C144.159 10.7022 144.05 11.3946 144.05 12.1818C144.05 12.9749 144.159 13.6763 144.378 14.2859C144.603 14.8896 144.926 15.363 145.346 15.7063C145.772 16.0437 146.296 16.2124 146.917 16.2124Z" fill="#FCC647"/>
</svg>
